<?xml-stylesheet type="text/css" href="../sass/style.scss"?>

<svg version="1.1" id="Layer_1" xmlns="http://www.w3.org/2000/svg" xmlns:xlink="http://www.w3.org/1999/xlink" x="0px" y="0px"
	 width="518.5px" height="538px" viewBox="0 0 518.5 538" style="enable-background:new 0 0 518.5 538;" xml:space="preserve">
<g>
	<g class="castle">
		<path d="M253.583,86.975c-2.179,10.047-8.091,19.417-12.257,28.761c-4.93,11.054-10.136,22.004-15.587,32.81
			c-4.967,9.848-10.119,19.6-15.719,29.104c-2.819,4.785-5.81,9.465-8.911,14.07c-2.704,4.015-6.18,7.219-7.67,11.912
			c-0.294,0.924,1.155,1.317,1.446,0.398c1.554-4.892,5.71-8.867,8.56-13.098c3.098-4.6,5.991-9.334,8.805-14.111
			c5.911-10.033,11.217-20.416,16.445-30.816c5.169-10.282,10.018-20.749,14.705-31.258c3.986-8.938,9.54-17.735,11.63-27.373
			C255.233,86.43,253.788,86.029,253.583,86.975L253.583,86.975z"/>
	</g>
</g>
<g>
	<g>
		<path d="M256.067,86.796c3.248,3.302,4.111,8.932,5.403,13.231c1.527,5.081,4.123,9.953,6.425,14.708
			c5.419,11.195,10.457,22.566,16.174,33.617c5.613,10.849,11.765,21.413,18.129,31.835c5.702,9.338,11.766,18.917,20.552,25.659
			c0.768,0.589,1.513-0.715,0.757-1.295c-9.539-7.321-15.775-18.13-21.92-28.253c-6.344-10.45-12.343-21.105-17.913-31.988
			c-5.669-11.08-10.742-22.481-16.108-33.71c-2.487-5.207-4.462-10.431-6.127-15.936c-0.94-3.11-1.979-6.559-4.311-8.929
			C256.448,85.045,255.388,86.106,256.067,86.796L256.067,86.796z"/>
	</g>
</g>
<g>
	<g>
		<path d="M248.773,106.051c3.732-2.158,8.926-2.701,12.91-0.909c0.875,0.394,1.638-0.899,0.757-1.295
			c-4.49-2.021-10.189-1.54-14.424,0.909C247.179,105.24,247.934,106.536,248.773,106.051L248.773,106.051z"/>
	</g>
</g>
<g>
	<g>
		<path d="M254.952,104.694c1.308,5.999-0.162,12.273,1.369,18.223c0.241,0.937,1.688,0.539,1.446-0.398
			c-1.526-5.932-0.062-12.224-1.369-18.223C256.192,103.35,254.747,103.751,254.952,104.694L254.952,104.694z"/>
	</g>
</g>
<g>
	<g>
		<path d="M239.469,126.179c11.264-2.541,22.576-0.446,33.782,1.37c0.946,0.153,1.352-1.292,0.398-1.446
			c-11.47-1.858-23.054-3.969-34.579-1.37C238.127,124.946,238.527,126.392,239.469,126.179L239.469,126.179z"/>
	</g>
</g>
<g>
	<g>
		<path d="M247.645,125.456c-0.199,7.056-2.941,13.795-5.444,20.301c-0.348,0.904,1.103,1.292,1.446,0.398
			c2.557-6.646,5.294-13.493,5.498-20.7C249.172,124.488,247.672,124.491,247.645,125.456L247.645,125.456z"/>
	</g>
</g>
<g>
	<g>
		<path d="M263.699,126.743c3.254,5.951,3.899,13.018,7.735,18.684c0.539,0.796,1.839,0.046,1.295-0.757
			c-3.827-5.654-4.481-12.735-7.735-18.684C264.53,125.137,263.234,125.894,263.699,126.743L263.699,126.743z"/>
	</g>
</g>
<g>
	<g>
		<path d="M229.002,152.15c18.024-5.436,35.514-5.515,53.814-1.363c0.942,0.214,1.342-1.232,0.398-1.446
			c-18.532-4.206-36.354-4.143-54.611,1.363C227.68,150.982,228.074,152.431,229.002,152.15L229.002,152.15z"/>
	</g>
</g>
<g>
	<g>
		<path d="M256.776,148.433c1.182,6.914-1.165,13.814-0.481,20.762c0.094,0.954,1.595,0.962,1.5,0
			c-0.697-7.09,1.636-14.098,0.428-21.161C258.06,147.083,256.614,147.487,256.776,148.433L256.776,148.433z"/>
	</g>
</g>
<g>
	<g>
		<path d="M213.298,178.609c14.68-0.317,28.17-7.217,42.848-7.824c7.435-0.308,14.519,1.109,21.859,1.899
			c6.63,0.713,14.896-0.953,19.977,4.336c0.671,0.699,1.73-0.363,1.061-1.061c-3.792-3.947-8.968-4.269-14.165-4.418
			c-7.341-0.211-14.513-1.732-21.841-2.184c-7.686-0.474-15.139,0.417-22.591,2.241c-9.023,2.209-17.761,5.308-27.148,5.511
			C212.333,177.13,212.331,178.63,213.298,178.609L213.298,178.609z"/>
	</g>
</g>
<g>
	<g>
		<path d="M233.062,175.582c0.345,3.839-0.861,7.516-1.804,11.19c-0.241,0.938,1.206,1.335,1.446,0.398
			c0.975-3.799,2.214-7.619,1.857-11.588C234.477,174.626,232.976,174.618,233.062,175.582L233.062,175.582z"/>
	</g>
</g>
<g>
	<g>
		<path d="M287.282,174.666c0.583,4.916,2.234,9.539,4.211,14.052c0.387,0.884,1.679,0.12,1.295-0.757
			c-1.862-4.252-3.456-8.662-4.006-13.295C288.67,173.718,287.168,173.707,287.282,174.666L287.282,174.666z"/>
	</g>
</g>
<g>
	<g>
		<path d="M172.367,210.74c5.356-4.548,12.409-6.739,18.807-9.379c0.881-0.363,0.496-1.815-0.398-1.446
			c-6.65,2.744-13.904,5.041-19.469,9.765C170.568,210.306,171.635,211.362,172.367,210.74L172.367,210.74z"/>
	</g>
</g>
<g>
	<g>
		<path d="M191.814,200.713c2.097,2.669,2.952,5.943,3.454,9.241c0.145,0.954,1.59,0.547,1.446-0.398
			c-0.547-3.598-1.565-7.008-3.84-9.903C192.277,198.893,191.224,199.962,191.814,200.713L191.814,200.713z"/>
	</g>
</g>
<g>
	<g>
		<path d="M196.645,211.387c6.923-1.224,14.167-3.252,20.225-6.909c0.827-0.499,0.073-1.796-0.757-1.295
			c-5.94,3.585-13.071,5.556-19.867,6.758C195.295,210.108,195.699,211.554,196.645,211.387L196.645,211.387z"/>
	</g>
</g>
<g>
	<g>
		<path d="M212.651,192.813c1.448,3.07,2.092,6.522,2.664,9.847c0.164,0.952,1.609,0.547,1.446-0.398
			c-0.597-3.469-1.304-7.004-2.815-10.206C213.533,191.182,212.24,191.943,212.651,192.813L212.651,192.813z"/>
	</g>
</g>
<g>
	<g>
		<path d="M214.661,191.822c9.79,0.77,19.439-2.089,28.916-4.128c0.946-0.203,0.544-1.649-0.398-1.446
			c-9.354,2.012-18.859,4.833-28.518,4.074C213.696,190.246,213.704,191.747,214.661,191.822L214.661,191.822z"/>
	</g>
</g>
<g>
	<g>
		<path d="M241.822,188.718c2.068,2.941,1.431,7.347,2.202,10.749c0.213,0.943,1.66,0.543,1.446-0.398
			c-0.8-3.533-0.177-8.014-2.353-11.107C242.565,187.177,241.264,187.925,241.822,188.718L241.822,188.718z"/>
	</g>
</g>
<g>
	<g>
		<path d="M245.649,200.018c8.442,0.125,16.849,1.668,25.269,0.434c0.955-0.14,0.547-1.585-0.398-1.446
			c-8.27,1.212-16.579-0.365-24.87-0.488C244.681,198.504,244.683,200.004,245.649,200.018L245.649,200.018z"/>
	</g>
</g>
<g>
	<g>
		<path d="M271.358,188.993c0.404,2.972-0.415,5.945-0.474,8.912c-0.02,0.968,1.48,0.966,1.5,0c0.062-3.123,0.846-6.181,0.42-9.311
			C272.674,187.64,271.229,188.048,271.358,188.993L271.358,188.993z"/>
	</g>
</g>
<g>
	<g>
		<path d="M272.996,189.544c10.373,0.073,20.385,1.582,30.328,4.529c0.93,0.276,1.324-1.172,0.398-1.446
			c-10.085-2.99-20.208-4.508-30.726-4.583C272.028,188.037,272.029,189.537,272.996,189.544L272.996,189.544z"/>
	</g>
</g>
<g>
	<g>
		<path d="M304.176,193.604c-1.322,3.229-1.824,6.677-2.739,10.026c-0.255,0.935,1.192,1.331,1.446,0.398
			c0.916-3.349,1.417-6.798,2.739-10.026C305.989,193.107,304.537,192.722,304.176,193.604L304.176,193.604z"/>
	</g>
</g>
<g>
	<g>
		<path d="M301.961,205.923c6.672,1.464,12.766,4.491,19.145,6.833c0.91,0.334,1.299-1.116,0.398-1.446
			c-6.379-2.342-12.472-5.37-19.145-6.833C301.417,204.27,301.016,205.716,301.961,205.923L301.961,205.923z"/>
	</g>
</g>
<g>
	<g>
		<path d="M322.482,212.687c0.542-3.27,2.009-6.324,4.026-8.939c0.591-0.766-0.713-1.511-1.295-0.757
			c-2.083,2.701-3.617,5.92-4.177,9.297C320.879,213.234,322.324,213.639,322.482,212.687L322.482,212.687z"/>
	</g>
</g>
<g>
	<g>
		<path d="M324.491,204.119c6.712,0.199,18.636,3.829,21.154,10.838c0.324,0.903,1.774,0.514,1.446-0.398
			c-2.789-7.766-15.139-11.719-22.6-11.94C323.523,202.59,323.525,204.091,324.491,204.119L324.491,204.119z"/>
	</g>
</g>
<g>
	<g>
		<path d="M171.189,211.496c2.877,4.396,3.125,9.908,4.48,14.864c1.784,6.524,3.078,13.37,4.095,20.053
			c0.145,0.954,1.59,0.547,1.446-0.398c-1.027-6.751-2.649-13.383-4.095-20.053c-1.097-5.062-1.744-10.812-4.631-15.223
			C171.957,209.934,170.658,210.684,171.189,211.496L171.189,211.496z"/>
	</g>
</g>
<g>
	<g>
		<path d="M179.737,245.753c0,0.303,0,0.605,0,0.908c0,0.967,1.5,0.967,1.5,0c0-0.303,0-0.605,0-0.908
			C181.237,244.786,179.737,244.786,179.737,245.753L179.737,245.753z"/>
	</g>
</g>
<g>
	<g>
		<path d="M179.503,247.652c2.784,2.271,5.889,4.105,8.664,6.386c0.741,0.609,1.809-0.446,1.061-1.061
			c-2.776-2.282-5.88-4.116-8.664-6.386C179.821,245.986,178.753,247.041,179.503,247.652L179.503,247.652z"/>
	</g>
</g>
<g>
	<g>
		<path d="M336.602,245.375c-2.048,2.665-4.171,5.339-5.925,8.209c-0.506,0.828,0.792,1.581,1.295,0.757
			c1.755-2.87,3.878-5.544,5.925-8.209C338.486,245.364,337.183,244.619,336.602,245.375L336.602,245.375z"/>
	</g>
</g>
<g>
	<g>
		<path d="M344.702,213.85c0.146,11.197-5.545,21.274-7.268,32.165c-0.149,0.946,1.295,1.352,1.446,0.398
			c1.744-11.026,7.469-21.223,7.321-32.563C346.189,212.884,344.689,212.882,344.702,213.85L344.702,213.85z"/>
	</g>
</g>
<g>
	<g>
		<path d="M190.251,250.109c-2.928,11.508,0.289,23.638,0.434,35.288c0.012,0.967,1.512,0.968,1.5,0
			c-0.144-11.492-3.375-23.543-0.488-34.89C191.937,249.57,190.49,249.172,190.251,250.109L190.251,250.109z"/>
	</g>
</g>
<g>
	<g>
		<path d="M190.521,249.242c3.759-0.478,6.996-3.54,9.926-5.708c4.976-3.681,10.487-5.81,16.412-7.519
			c14.405-4.157,29.178-6.845,44.198-6.524c13.804,0.295,27.272,3.194,40.723,6.03c8.636,1.821,22.632,4.279,26.613,13.349
			c0.388,0.884,1.68,0.12,1.295-0.757c-3.48-7.93-14.22-10.71-21.788-12.702c-12.273-3.23-25.034-5.627-37.653-6.862
			c-15.772-1.543-30.473,0.53-45.795,4.024c-6.432,1.467-12.786,3.161-18.799,5.916c-5.017,2.299-9.57,8.546-15.131,9.253
			C189.574,247.862,189.562,249.363,190.521,249.242L190.521,249.242z"/>
	</g>
</g>
<g>
	<g>
		<path d="M328.75,249.854c0.842,14.147-0.417,28.274-1.362,42.383c-0.905,13.499-0.481,27.037-0.461,40.553
			c0.001,0.967,1.501,0.967,1.5,0c-0.02-13.521-0.41-27.049,0.461-40.553c0.911-14.117,2.205-28.229,1.362-42.383
			C330.193,248.894,328.693,248.888,328.75,249.854L328.75,249.854z"/>
	</g>
</g>
<g>
	<g>
		<path d="M183.488,338.703c-1.565-3.899,8.002-4.502,10.297-4.855c1.248-0.192,2.434-0.427,3.703-0.523
			c2.005-0.152,2.411,2.998,2.736,4.258c0.75,2.917,1.836,5.718,3.316,8.339c0.475,0.842,1.771,0.086,1.295-0.757
			c-2.205-3.907-2.51-8.607-4.75-12.382c-1.27-2.141-5.806-0.471-7.58-0.253c-3.136,0.385-12.552,1.369-10.463,6.573
			C182.397,339.987,183.849,339.601,183.488,338.703L183.488,338.703z"/>
	</g>
</g>
<g>
	<g>
		<path d="M204.188,344.476c6.184,0.292,12.407-1.173,18.491,0.427c0.937,0.247,1.333-1.201,0.398-1.446
			c-6.226-1.638-12.56-0.182-18.889-0.481C203.22,342.93,203.225,344.43,204.188,344.476L204.188,344.476z"/>
	</g>
</g>
<g>
	<g>
		<path d="M224.536,345.542c0.031-3.964,0.468-7.844,2.175-11.465c0.41-0.87-0.883-1.631-1.295-0.757
			c-1.827,3.874-2.348,7.977-2.38,12.222C223.029,346.51,224.529,346.509,224.536,345.542L224.536,345.542z"/>
	</g>
</g>
<g>
	<g>
		<path d="M225.981,336.177c6.984-4.61,15.845,1.493,23.246-1.831c0.881-0.396,0.118-1.688-0.757-1.295
			c-7.382,3.315-16.083-2.898-23.246,1.831C224.421,335.413,225.171,336.712,225.981,336.177L225.981,336.177z"/>
	</g>
</g>
<g>
	<g>
		<path d="M247.747,334.993c1.409,3.266,3.422,6.878,3.083,10.549c-0.089,0.963,1.412,0.955,1.5,0
			c0.364-3.95-1.771-7.791-3.289-11.306C248.66,333.35,247.368,334.115,247.747,334.993L247.747,334.993z"/>
	</g>
</g>
<g>
	<g>
		<path d="M251.126,346.76c6.768,0.248,14.162-2.903,20.755-0.942c0.929,0.276,1.323-1.171,0.398-1.446
			c-6.765-2.013-14.256,1.141-21.154,0.888C250.159,345.225,250.162,346.725,251.126,346.76L251.126,346.76z"/>
	</g>
</g>
<g>
	<g>
		<path d="M273.183,345.921c1.901-3.379,3.314-6.993,5.01-10.474c0.422-0.866-0.872-1.626-1.295-0.757
			c-1.695,3.48-3.109,7.094-5.01,10.474C271.413,346.008,272.708,346.764,273.183,345.921L273.183,345.921z"/>
	</g>
</g>
<g>
	<g>
		<path d="M277.304,336.253c7.271-2.62,15-1.859,22.579-1.804c0.968,0.007,0.967-1.493,0-1.5
			c-7.716-0.056-15.581-0.808-22.977,1.857C276.002,335.132,276.392,336.582,277.304,336.253L277.304,336.253z"/>
	</g>
</g>
<g>
	<g>
		<path d="M299.621,334.416c-0.894,3.583-0.117,7.323,1.438,10.611c0.413,0.874,1.706,0.112,1.295-0.757
			c-1.377-2.914-2.079-6.282-1.287-9.456C301.301,333.875,299.854,333.477,299.621,334.416L299.621,334.416z"/>
	</g>
</g>
<g>
	<g>
		<path d="M301.706,345.845c5.769-0.029,11.553-0.435,17.314,0c0.965,0.073,0.958-1.428,0-1.5c-5.761-0.435-11.545-0.029-17.314,0
			C300.739,344.35,300.738,345.85,301.706,345.845L301.706,345.845z"/>
	</g>
</g>
<g>
	<g>
		<path d="M321.567,345.742c0.6-4.324,2.553-8.246,4.48-12.111c0.43-0.863-0.863-1.623-1.295-0.757
			c-1.98,3.97-4.016,8.027-4.631,12.47C319.989,346.289,321.435,346.696,321.567,345.742L321.567,345.742z"/>
	</g>
</g>
<g>
	<g>
		<path d="M325.399,334.002c3.645,0,7.29,0,10.935,0c0.967,0,0.967-1.5,0-1.5c-3.645,0-7.29,0-10.935,0
			C324.432,332.502,324.432,334.002,325.399,334.002L325.399,334.002z"/>
	</g>
</g>
<g>
	<g>
		<path d="M335.688,333.975c1.924,0.39,3.237,1.797,4.197,3.433c0.489,0.834,1.786,0.079,1.295-0.757
			c-1.144-1.951-2.804-3.659-5.093-4.123C335.142,332.337,334.74,333.783,335.688,333.975L335.688,333.975z"/>
	</g>
</g>
<g>
	<g>
		<path d="M328.29,287.221c-0.227,8.247,2.373,16.138,3.377,24.263c0.858,6.948,1.065,13.841,4.02,20.315
			c0.401,0.879,1.693,0.116,1.295-0.757c-3.024-6.628-3.12-13.932-3.999-21.044c-0.945-7.649-3.408-15.001-3.193-22.778
			C329.816,286.253,328.316,286.256,328.29,287.221L328.29,287.221z"/>
	</g>
</g>
<g>
	<g>
		<path d="M330.154,288.398c6.56-1.95,12.779-4.801,19.145-7.281c0.891-0.347,0.504-1.798-0.398-1.446
			c-6.366,2.48-12.585,5.331-19.145,7.281C328.831,287.227,329.225,288.675,330.154,288.398L330.154,288.398z"/>
	</g>
</g>
<g>
	<g>
		<path d="M349.814,282.136c1.789,3.823,1.964,8.153,4.108,11.843c0.485,0.836,1.782,0.081,1.295-0.757
			c-2.133-3.671-2.322-8.026-4.108-11.843C350.7,280.503,349.407,281.266,349.814,282.136L349.814,282.136z"/>
	</g>
</g>
<g>
	<g>
		<path d="M355.671,295.239c5.772-0.884,11.263-3.438,16.867-5.01c0.93-0.261,0.535-1.708-0.398-1.446
			c-5.604,1.572-11.094,4.125-16.867,5.01C354.318,293.938,354.725,295.384,355.671,295.239L355.671,295.239z"/>
	</g>
</g>
<g>
	<g>
		<path d="M371.615,279.679c0.448,2.937,0.427,5.948,0.427,8.912c0,0.967,1.5,0.967,1.5,0c0-3.105-0.012-6.235-0.481-9.311
			C372.916,278.326,371.471,278.733,371.615,279.679L371.615,279.679z"/>
	</g>
</g>
<g>
	<g>
		<path d="M373.701,278.86c9.984-0.448,20.094-0.492,29.88,1.79c0.941,0.22,1.34-1.227,0.398-1.446
			c-9.917-2.312-20.158-2.297-30.278-1.844C372.738,277.403,372.734,278.903,373.701,278.86L373.701,278.86z"/>
	</g>
</g>
<g>
	<g>
		<path d="M403.03,281.296c0.305,3.583-1.255,6.929-1.369,10.488c-0.031,0.968,1.469,0.965,1.5,0
			c0.114-3.567,1.676-6.885,1.369-10.488C404.449,280.339,402.948,280.332,403.03,281.296L403.03,281.296z"/>
	</g>
</g>
<g>
	<g>
		<path d="M402.212,293.415c5.452,0.909,10.814,1.91,15.765,4.487c0.857,0.446,1.615-0.848,0.757-1.295
			c-5.065-2.636-10.537-3.707-16.124-4.638C401.665,291.811,401.259,293.256,402.212,293.415L402.212,293.415z"/>
	</g>
</g>
<g>
	<g>
		<path d="M425.464,285.48c-2.557,3.575-3.68,8.01-6.73,11.244c-0.663,0.703,0.396,1.766,1.061,1.061
			c3.151-3.34,4.328-7.861,6.964-11.548C427.323,285.448,426.021,284.701,425.464,285.48L425.464,285.48z"/>
	</g>
</g>
<g>
	<g>
		<path d="M426.111,287.063c2.859-0.116,5.527,2.194,7.619,3.873c2.079,1.668,4.012,3.507,6.123,5.135
			c0.767,0.591,1.512-0.713,0.758-1.295c-4.015-3.095-8.904-9.439-14.5-9.213C425.147,285.602,425.144,287.102,426.111,287.063
			L426.111,287.063z"/>
	</g>
</g>
<g>
	<g>
		<path d="M439.13,294.433c3.098,4.753-2.046,14.501-3.262,19.475c-2.504,10.25-3.359,20.156-10.749,28.379
			c-0.645,0.717,0.413,1.782,1.061,1.061c7.417-8.254,8.99-18.525,11.135-29.041c1.14-5.589,6.693-15.132,3.109-20.63
			C439.899,292.869,438.6,293.62,439.13,294.433L439.13,294.433z"/>
	</g>
</g>
<g>
	<g>
		<path d="M343.56,335.262c24.267-11.869,56.438-14.125,79.441,1.823c0.797,0.553,1.546-0.748,0.757-1.295
			c-23.449-16.258-56.237-13.914-80.955-1.823C341.934,334.392,342.694,335.686,343.56,335.262L343.56,335.262z"/>
	</g>
</g>
<g>
	<g>
		<path d="M386.734,213.933c-5.591,11.97-12.868,23.328-19.526,34.731c-5.881,10.072-12.906,19.699-16.1,31.064
			c-0.262,0.933,1.185,1.329,1.446,0.398c3.294-11.724,10.703-21.722,16.771-32.114c6.387-10.938,13.34-21.839,18.704-33.322
			C388.436,213.819,387.144,213.057,386.734,213.933L386.734,213.933z"/>
	</g>
</g>
<g>
	<g>
		<path d="M387.56,214.049c4.654,12.624,9.246,25.92,15.467,37.858c6.253,12,15.196,22.36,21.521,34.33
			c0.452,0.855,1.747,0.098,1.295-0.757c-5.798-10.975-13.601-20.696-19.881-31.381c-3.583-6.095-5.903-12.673-8.511-19.212
			c-2.823-7.078-5.809-14.085-8.445-21.236C388.675,212.751,387.225,213.14,387.56,214.049L387.56,214.049z"/>
	</g>
</g>
<g>
	<g>
		<path d="M373.9,242.835c7.444-1.537,16.452-4.545,23.577-0.537c0.844,0.475,1.6-0.821,0.757-1.295
			c-7.532-4.238-16.862-1.24-24.732,0.385C372.555,241.584,372.957,243.03,373.9,242.835L373.9,242.835z"/>
	</g>
</g>
<g>
	<g>
		<path d="M387.106,240.034c1.418,8.197,0.076,16.611-0.027,24.857c-0.012,0.968,1.488,0.967,1.5,0
			c0.104-8.396,1.417-16.91-0.027-25.255C388.388,238.683,386.942,239.088,387.106,240.034L387.106,240.034z"/>
	</g>
</g>
<g>
	<g>
		<path d="M356.586,272.908c19.528-7.122,42.303-9.922,60.482,2.202c0.807,0.539,1.557-0.761,0.757-1.295
			c-18.487-12.331-41.754-9.605-61.638-2.354C355.287,271.791,355.676,273.24,356.586,272.908L356.586,272.908z"/>
	</g>
</g>
<g>
	<g>
		<path d="M400.298,268.083c-0.092,3.771-1.235,7.587-2.251,11.197c-0.263,0.933,1.185,1.328,1.446,0.398
			c1.054-3.743,2.209-7.682,2.305-11.595C401.822,267.116,400.322,267.118,400.298,268.083L400.298,268.083z"/>
	</g>
</g>
<g>
	<g>
		<path d="M370.673,269.907c0.028,2.54,0.447,5.01,0.942,7.494c0.189,0.948,1.634,0.546,1.446-0.398
			c-0.469-2.354-0.861-4.688-0.888-7.095C372.163,268.94,370.663,268.939,370.673,269.907L370.673,269.907z"/>
	</g>
</g>
<g>
	<g>
		<path d="M127.919,241.651c0.043-0.44,8.144-1.088,9.357-1.155c3.419-0.188,8.895-0.687,11.707,1.686
			c0.734,0.62,1.801-0.436,1.061-1.061c-3.639-3.07-10.285-2.313-14.638-2.008c-1.647,0.115-8.746,0.062-8.986,2.539
			C126.325,242.614,127.826,242.605,127.919,241.651L127.919,241.651z"/>
	</g>
</g>
<g>
	<g>
		<path d="M136.025,240.034c1.558,7.827,2.685,17.172,1.362,25.119c-0.158,0.946,1.288,1.351,1.446,0.398
			c1.376-8.265,0.263-17.746-1.362-25.916C137.283,238.687,135.837,239.089,136.025,240.034L136.025,240.034z"/>
	</g>
</g>
<g>
	<g>
		<path d="M109.332,274.663c10.088-4.509,18.478-9.158,29.947-8.75c9.779,0.349,19.133,4.419,28.712,6.079
			c0.946,0.164,1.351-1.281,0.398-1.446c-10.328-1.79-20.159-5.814-30.719-6.19c-10.953-0.39-19.476,4.712-29.096,9.012
			C107.693,273.762,108.457,275.054,109.332,274.663L109.332,274.663z"/>
	</g>
</g>
<g>
	<g>
		<path d="M151.591,268.462c0.665,1.219,0.441,3.05,0.402,4.385c-0.049,1.692-0.214,3.392-0.478,5.064
			c-0.149,0.946,1.296,1.352,1.446,0.398c0.313-1.98,0.489-3.978,0.547-5.982c0.043-1.479,0.111-3.28-0.623-4.622
			C152.422,266.856,151.127,267.613,151.591,268.462L151.591,268.462z"/>
	</g>
</g>
<g>
	<g>
		<path d="M123.721,269.191c1.096,2.961,1.31,6.241,1.335,9.373c0.008,0.967,1.508,0.968,1.5,0
			c-0.027-3.246-0.253-6.702-1.389-9.771C124.834,267.894,123.384,268.282,123.721,269.191L123.721,269.191z"/>
	</g>
</g>
<g>
	<g>
		<path d="M135.103,213.651c-7.59,25.858-23.252,48.087-35.46,71.829c-0.442,0.858,0.853,1.618,1.295,0.757
			c12.269-23.858,27.985-46.204,35.612-72.188C136.822,213.119,135.374,212.725,135.103,213.651L135.103,213.651z"/>
	</g>
</g>
<g>
	<g>
		<path d="M135.295,215.756c8.029,10.093,12.559,22.559,19.335,33.474c6.558,10.562,14.891,20.484,19.215,32.265
			c0.33,0.9,1.78,0.512,1.446-0.398c-4.363-11.887-12.649-22.023-19.366-32.624c-6.964-10.989-11.435-23.55-19.57-33.777
			C135.754,213.939,134.7,215.008,135.295,215.756L135.295,215.756z"/>
	</g>
</g>
<g>
	<g>
		<path d="M98.658,286.058c1.016,3.708,3.158,6.925,4.556,10.481c0.35,0.89,1.801,0.503,1.446-0.398
			c-1.396-3.551-3.543-6.783-4.556-10.481C99.849,284.727,98.402,285.123,98.658,286.058L98.658,286.058z"/>
	</g>
</g>
<g>
	<g>
		<path d="M105.044,297.062c5.708-0.978,11.386-2.183,16.86-4.102c0.907-0.318,0.517-1.767-0.398-1.446
			c-5.474,1.918-11.151,3.124-16.86,4.102C103.694,295.779,104.099,297.225,105.044,297.062L105.044,297.062z"/>
	</g>
</g>
<g>
	<g>
		<path d="M118.25,280.594c0.53,3.633,0.812,7.727,2.354,11.101c0.401,0.879,1.694,0.116,1.295-0.757
			c-1.473-3.224-1.696-7.272-2.202-10.742C119.557,279.241,118.111,279.648,118.25,280.594L118.25,280.594z"/>
	</g>
</g>
<g>
	<g>
		<path d="M120.267,281.489c10.209-4.431,21.698-1.845,32.426-1.721c0.968,0.011,0.967-1.489,0-1.5
			c-11.076-0.128-22.652-2.645-33.183,1.926C118.625,280.579,119.389,281.871,120.267,281.489L120.267,281.489z"/>
	</g>
</g>
<g>
	<g>
		<path d="M150.6,278.763c0.854,3.827,0.473,7.768,0.888,11.644c0.102,0.951,1.603,0.961,1.5,0c-0.43-4.013-0.057-8.08-0.942-12.042
			C151.836,277.421,150.39,277.821,150.6,278.763L150.6,278.763z"/>
	</g>
</g>
<g>
	<g>
		<path d="M153.154,291.618c5.426,0.054,11.145,0.612,16.199,2.706c0.894,0.37,1.279-1.082,0.398-1.446
			c-5.152-2.133-11.066-2.705-16.598-2.759C152.186,290.108,152.187,291.608,153.154,291.618L153.154,291.618z"/>
	</g>
</g>
<g>
	<g>
		<path d="M171.645,292.891c1.323-3.821,1.399-7.974,3.11-11.671c0.404-0.872-0.889-1.634-1.295-0.757
			c-1.773,3.829-1.894,8.076-3.262,12.029C169.881,293.409,171.331,293.799,171.645,292.891L171.645,292.891z"/>
	</g>
</g>
<g>
	<g>
		<path d="M174.831,281.118c7.19,1.555,12.854,6.113,18.952,9.937c0.822,0.516,1.574-0.783,0.757-1.295
			c-6.208-3.895-11.997-8.507-19.31-10.088C174.287,279.467,173.886,280.913,174.831,281.118L174.831,281.118z"/>
	</g>
</g>
<g>
	<g>
		<path d="M84.269,295.617c5.254-2.882,10.425-5.908,15.49-9.111c0.815-0.515,0.063-1.814-0.757-1.295
			c-5.065,3.204-10.236,6.229-15.49,9.111C82.664,294.788,83.421,296.083,84.269,295.617L84.269,295.617z"/>
	</g>
</g>
<g>
	<g>
		<path d="M83.615,295.623c2.006,12.515,6.593,24.501,7.722,37.168c0.085,0.956,1.586,0.964,1.5,0
			c-1.141-12.805-5.748-24.917-7.775-37.566C84.908,294.271,83.463,294.677,83.615,295.623L83.615,295.623z"/>
	</g>
</g>
<g>
	<g>
		<path d="M92.01,336.521c2.367,2.79,4.951,5.377,7.749,7.735c0.734,0.619,1.801-0.437,1.061-1.061
			c-2.798-2.358-5.382-4.945-7.749-7.735C92.444,334.722,91.389,335.788,92.01,336.521L92.01,336.521z"/>
	</g>
</g>
<g>
	<g>
		<path d="M193.514,289.423c4.069,5.454-0.035,16.61-1.478,22.427c-1.738,7.007-4.461,14.162-5.004,21.401
			c-0.072,0.965,1.428,0.958,1.5,0c0.62-8.253,3.911-16.491,5.8-24.512c1.284-5.453,4.274-14.983,0.477-20.073
			C194.237,287.901,192.935,288.647,193.514,289.423L193.514,289.423z"/>
	</g>
</g>
<g>
	<g>
		<path d="M102.499,335.716c11.542-7.026,25.658-9.183,38.961-9.456c13.549-0.279,28.528,1.787,40.019,9.456
			c0.807,0.539,1.557-0.761,0.757-1.295c-11.422-7.625-25.93-9.599-39.382-9.672c-13.927-0.076-29.057,2.333-41.111,9.672
			C100.917,334.923,101.67,336.221,102.499,335.716L102.499,335.716z"/>
	</g>
</g>
<g>
	<g>
		<path d="M100.021,335.729c4.693,18.633,3.206,38.189,3.166,57.214c-0.002,0.967,1.498,0.967,1.5,0
			c0.04-19.165,1.509-38.841-3.22-57.612C101.23,334.393,99.784,334.791,100.021,335.729L100.021,335.729z"/>
	</g>
</g>
<g>
	<g>
		<path d="M421.934,337.423c2.08,2.297,1.167,7.166,0.917,9.95c-0.315,3.521-0.967,6.999-1.431,10.5
			c-1.532,11.551-1.982,22.958-1.984,34.608c0,0.967,1.5,0.967,1.5,0c0.002-12.481,0.482-24.714,2.351-37.069
			c0.766-5.064,3.605-14.746-0.292-19.05C422.344,335.644,421.286,336.708,421.934,337.423L421.934,337.423z"/>
	</g>
</g>
<g>
	<g>
		<path d="M103.289,392.86c1.72,3.694,1.396,8.199,1.555,12.185c0.205,5.11,1.332,10.222,1.99,15.288
			c1.481,11.383,1.507,22.794,1.833,34.249c0.563,19.807,0.51,40.837,5.027,60.232c0.219,0.942,1.666,0.543,1.446-0.398
			c-2.322-9.973-2.868-20.497-3.609-30.683c-0.846-11.635-1.221-23.301-1.522-34.96c-0.28-10.864-0.728-21.535-2.191-32.316
			c-0.707-5.207-1.426-10.307-1.634-15.561c-0.118-2.998-0.32-6.043-1.601-8.793C104.176,391.227,102.883,391.989,103.289,392.86
			L103.289,392.86z"/>
	</g>
</g>
<g>
	<g>
		<path d="M182.125,336.968c-5.041,11.325-1.738,25.228-1.163,37.146c0.764,15.812,1.101,31.641,1.996,47.448
			c0.867,15.323,2.417,30.599,3.489,45.908c1.039,14.839,1.365,29.717,4.101,44.379c0.177,0.95,1.623,0.547,1.446-0.398
			c-2.709-14.522-3.07-29.278-4.047-43.98c-0.933-14.037-2.315-28.04-3.251-42.076c-0.962-14.439-1.356-28.913-1.911-43.371
			c-0.274-7.156-0.684-14.292-1.185-21.435c-0.537-7.652-1.389-15.655,1.819-22.864C183.809,336.85,182.517,336.086,182.125,336.968
			L182.125,336.968z"/>
	</g>
</g>
<g>
	<g>
		<path d="M114.142,514.354c1.671,12.096,21.226,11.473,30.09,11.492c16.142,0.034,34.431-4.386,46.819-15.263
			c0.729-0.64-0.337-1.696-1.061-1.061c-11.452,10.055-28.887,14.765-43.889,14.846c-8.549,0.047-28.909,1.201-30.514-10.413
			C115.456,513,114.011,513.408,114.142,514.354L114.142,514.354z"/>
	</g>
</g>
<g>
	<g>
		<path d="M192.344,512.173c24.768,0.582,49.534,1.44,74.312,1.116c12.065-0.158,24.124-0.67,36.153-1.618
			c10.512-0.829,21.567-0.566,31.907-2.711c0.947-0.196,0.545-1.643-0.398-1.447c-10.768,2.233-22.433,1.942-33.392,2.807
			c-12.038,0.949-24.116,1.337-36.188,1.495c-24.136,0.316-48.27-0.574-72.395-1.142C191.376,510.65,191.378,512.15,192.344,512.173
			L192.344,512.173z"/>
	</g>
</g>
<g>
	<g>
		<path d="M342.885,338.723c0.217,6.632-1.374,13.055-2.136,19.605c-0.772,6.639-0.175,13.504-0.048,20.167
			c0.279,14.62-1.552,29.224-2.832,43.764c-1.253,14.247-1.225,28.33-1.26,42.61c-0.037,14.787-0.978,29.561-2.396,44.275
			c-0.093,0.963,1.408,0.954,1.5,0c1.356-14.079,2.215-28.186,2.382-42.331c0.176-14.931-0.001-29.65,1.273-44.555
			c1.192-13.939,2.903-27.887,2.855-41.896c-0.023-6.745-0.396-13.472-0.125-20.217c0.292-7.232,2.523-14.134,2.285-21.422
			C344.354,337.758,342.854,337.755,342.885,338.723L342.885,338.723z"/>
	</g>
</g>
<g>
	<g>
		<path d="M335.041,511.616c7.585,3.701,14.744,8.216,22.638,11.269c6.748,2.609,13.723,3.166,20.873,2.84
			c11.044-0.503,27.796-2.217,35.332-11.493c0.604-0.743-0.45-1.812-1.061-1.061c-7.288,8.971-23.642,10.427-34.271,11.054
			c-6.513,0.385-12.742-0.259-18.976-2.255c-8.406-2.691-15.89-7.8-23.778-11.648C334.932,509.898,334.171,511.192,335.041,511.616
			L335.041,511.616z"/>
	</g>
</g>
<g>
	<g>
		<path d="M419.436,393.404c-0.642,22.522-2.771,45.086-4.251,67.569c-0.682,10.352-1.594,20.776-3.236,31.023
			c-1.104,6.889-2.89,14.62-0.689,21.449c0.171,0.53,0.841,0.743,1.253,0.331c0.154-0.153,0.308-0.308,0.461-0.461
			c0.685-0.685-0.376-1.745-1.061-1.061c-0.154,0.153-0.308,0.308-0.461,0.461c0.418,0.11,0.835,0.221,1.253,0.331
			c-2.503-7.768,0.141-16.836,1.31-24.64c1.45-9.675,2.148-19.54,2.791-29.297c1.44-21.864,3.504-43.804,4.128-65.707
			C420.964,392.436,419.463,392.438,419.436,393.404L419.436,393.404z"/>
	</g>
</g>
<g>
	<g>
		<path d="M414.977,512.607c12.073,2.562,24.466,0.667,36.677,0.684c10.583,0.016,22.33,0.896,32.248-3.499
			c0.883-0.392,0.118-1.684-0.758-1.295c-10.028,4.444-22.216,3.308-32.92,3.292c-11.625-0.016-23.342,1.814-34.849-0.629
			C414.432,510.96,414.031,512.406,414.977,512.607L414.977,512.607z"/>
	</g>
</g>
<g>
	<g>
		<path d="M487.336,417.551c-0.119,7.82-1.782,15.327-2.995,23.012c-1.147,7.275-0.681,14.765-0.651,22.097
			c0.064,16.46-1.843,33.34-4.983,49.472c-0.184,0.944,1.262,1.348,1.447,0.398c2.966-15.241,4.326-30.708,4.92-46.21
			c0.303-7.924-0.235-15.838,0.516-23.749c0.802-8.434,3.116-16.484,3.247-25.021C488.851,416.583,487.351,416.585,487.336,417.551
			L487.336,417.551z"/>
	</g>
</g>
<g>
	<g>
		<path d="M419.725,411.461c13.375,1.279,26.714,3.564,40.106,4.45c6.139,0.406,12.192,0.579,18.291,1.457
			c4.275,0.615,8.682,1.227,12.896-0.001c0.927-0.27,0.532-1.718-0.398-1.446c-5.337,1.555-11.146,0.107-16.51-0.622
			c-5.337-0.726-10.788-0.656-16.159-1.012c-12.741-0.843-25.495-3.108-38.225-4.325
			C418.762,409.869,418.771,411.37,419.725,411.461L419.725,411.461z"/>
	</g>
</g>
<g>
	<g>
		<path d="M422.464,380.026c1.592,0,3.221-0.012,4.755-0.488c0.921-0.285,0.528-1.733-0.398-1.446
			c-1.411,0.437-2.893,0.434-4.356,0.434C421.497,378.526,421.497,380.026,422.464,380.026L422.464,380.026z"/>
	</g>
</g>
<g>
	<g>
		<path d="M425.12,379.806c1.125,1.337,0.964,3.626,0.996,5.263c0.036,1.868-0.062,3.742,0.154,5.603c0.11,0.949,1.612,0.96,1.5,0
			c-0.42-3.613,0.95-8.907-1.589-11.926C425.557,378.004,424.501,379.071,425.12,379.806L425.12,379.806z"/>
	</g>
</g>
<g>
	<g>
		<path d="M427.928,390.506c2.678,0.001,5.352,0.02,8.004,0.428c0.945,0.146,1.353-1.299,0.398-1.446
			c-2.789-0.429-5.585-0.48-8.402-0.481C426.96,389.006,426.96,390.506,427.928,390.506L427.928,390.506z"/>
	</g>
</g>
<g>
	<g>
		<path d="M438.257,390.672c0.001-2.829,0-5.669,0.428-8.472c0.144-0.946-1.302-1.353-1.447-0.398
			c-0.448,2.941-0.479,5.901-0.48,8.87C436.757,391.639,438.257,391.639,438.257,390.672L438.257,390.672z"/>
	</g>
</g>
<g>
	<g>
		<path d="M437.961,382.297c4.865,0.083,9.706,1.3,14.575,0.922c0.958-0.074,0.965-1.575,0-1.5
			c-4.869,0.378-9.71-0.839-14.575-0.922C436.993,380.78,436.995,382.28,437.961,382.297L437.961,382.297z"/>
	</g>
</g>
<g>
	<g>
		<path d="M450.871,382.001c-0.031,3.935-0.422,7.82-1.343,11.651c-0.226,0.94,1.221,1.339,1.447,0.398
			c0.95-3.958,1.363-7.982,1.396-12.049C452.379,381.033,450.879,381.034,450.871,382.001L450.871,382.001z"/>
	</g>
</g>
<g>
	<g>
		<path d="M449.805,393.693c4.106-0.034,8.197-0.428,12.304-0.461c0.967-0.008,0.968-1.508,0-1.5
			c-4.106,0.034-8.197,0.428-12.304,0.461C448.838,392.201,448.837,393.701,449.805,393.693L449.805,393.693z"/>
	</g>
</g>
<g>
	<g>
		<path d="M463.773,392.034c0.054-2.32,0.833-4.563,2.169-6.455c0.56-0.792-0.742-1.54-1.295-0.757
			c-1.483,2.1-2.314,4.642-2.374,7.211C462.251,393.002,463.751,393,463.773,392.034L463.773,392.034z"/>
	</g>
</g>
<g>
	<g>
		<path d="M465.047,385.924c4.878-1.271,9.914-0.022,14.631,1.362c0.93,0.273,1.324-1.174,0.398-1.446
			c-4.978-1.461-10.287-2.702-15.428-1.362C463.713,384.722,464.11,386.168,465.047,385.924L465.047,385.924z"/>
	</g>
</g>
<g>
	<g>
		<path d="M480.068,387.272c-0.564,2.753-1.705,5.594-1.85,8.409c-0.05,0.967,1.45,0.962,1.5,0c0.138-2.666,1.261-5.399,1.797-8.011
			C481.709,386.727,480.263,386.325,480.068,387.272L480.068,387.272z"/>
	</g>
</g>
<g>
	<g>
		<path d="M478.77,395.944c3.709,0.943,7.675,0.537,11.333-0.455c0.933-0.252,0.536-1.7-0.398-1.446
			c-3.396,0.92-7.088,1.331-10.536,0.455C478.23,394.259,477.832,395.706,478.77,395.944L478.77,395.944z"/>
	</g>
</g>
<g>
	<g>
		<path d="M490.206,396.136c0.027-2.467,0.445-4.794,1.336-7.095c0.349-0.903-1.102-1.291-1.447-0.398
			c-0.936,2.42-1.36,4.903-1.389,7.494C488.695,397.104,490.195,397.103,490.206,396.136L490.206,396.136z"/>
	</g>
</g>
<g>
	<g>
		<path d="M490.619,389.564c3.506,0.892,7.104,0.51,10.68,0.481c0.967-0.008,0.968-1.508,0-1.5
			c-3.433,0.028-6.915,0.429-10.281-0.427C490.08,387.879,489.682,389.326,490.619,389.564L490.619,389.564z"/>
	</g>
</g>
<g>
	<g>
		<path d="M500.575,389.495c0.932,6.627,0.619,16.255-2.662,22.221c-0.467,0.848,0.829,1.604,1.295,0.757
			c3.48-6.326,3.794-16.406,2.814-23.376C501.888,388.142,500.442,388.549,500.575,389.495L500.575,389.495z"/>
	</g>
</g>
<g>
	<g>
		<path d="M498.374,411.716c-2.187,3.528-6.336,5.437-9.448,8.037c-0.743,0.621,0.324,1.676,1.061,1.061
			c3.232-2.701,7.403-4.663,9.683-8.341C500.18,411.648,498.882,410.896,498.374,411.716L498.374,411.716z"/>
	</g>
</g>
<g>
	<g>
		<path d="M101.473,378.437c-0.742,1.226-3.124,1.426-4.37,1.452c-0.966,0.02-0.968,1.52,0,1.5c1.848-0.039,4.604-0.442,5.665-2.195
			C103.27,378.364,101.973,377.61,101.473,378.437L101.473,378.437z"/>
	</g>
</g>
<g>
	<g>
		<path d="M96.808,379.276c0,3.34,0,6.68,0,10.02c0,0.967,1.5,0.967,1.5,0c0-3.34,0-6.68,0-10.02
			C98.308,378.309,96.808,378.309,96.808,379.276L96.808,379.276z"/>
	</g>
</g>
<g>
	<g>
		<path d="M96.725,389.109c-0.8,0.587-2.297,0.673-3.239,0.893c-1.608,0.375-3.243,0.724-4.791,1.309
			c-0.896,0.338-0.508,1.789,0.398,1.446c1.549-0.585,3.183-0.933,4.792-1.309c1.083-0.253,2.67-0.364,3.597-1.044
			C98.252,389.838,97.505,388.535,96.725,389.109L96.725,389.109z"/>
	</g>
</g>
<g>
	<g>
		<path d="M89.163,391.381c-0.53-3.396-1.665-6.655-2.271-10.033c-0.17-0.951-1.616-0.547-1.446,0.398
			c0.606,3.379,1.741,6.638,2.271,10.033C87.865,392.733,89.311,392.327,89.163,391.381L89.163,391.381z"/>
	</g>
</g>
<g>
	<g>
		<path d="M72.295,383.632c4.478,0.881,8.877-1.257,13.157-2.271c0.941-0.223,0.542-1.669-0.398-1.446
			c-3.95,0.936-8.233,3.083-12.36,2.271C71.749,382,71.347,383.446,72.295,383.632L72.295,383.632z"/>
	</g>
</g>
<g>
	<g>
		<path d="M71.771,382.668c0.888,2.85,1.125,5.946,1.343,8.912c0.071,0.958,1.571,0.965,1.5,0c-0.228-3.088-0.472-6.343-1.396-9.311
			C72.931,381.349,71.483,381.742,71.771,382.668L71.771,382.668z"/>
	</g>
</g>
<g>
	<g>
		<path d="M61.361,393.205c3.589,0.88,7.089-0.319,10.68-0.42c0.965-0.027,0.968-1.527,0-1.5c-3.433,0.097-6.855,1.314-10.281,0.474
			C60.82,391.528,60.421,392.975,61.361,393.205L61.361,393.205z"/>
	</g>
</g>
<g>
	<g>
		<path d="M57.719,384.203c1.203,2.64,1.301,5.643,2.739,8.209c0.473,0.844,1.769,0.088,1.295-0.757
			c-1.429-2.55-1.537-5.572-2.739-8.209C58.613,382.567,57.321,383.33,57.719,384.203L57.719,384.203z"/>
	</g>
</g>
<g>
	<g>
		<path d="M43.331,388.222c5.256-0.164,10.129-2.188,15.235-3.213c0.948-0.19,0.546-1.636-0.398-1.446
			c-4.97,0.998-9.722,3-14.837,3.159C42.366,386.752,42.363,388.252,43.331,388.222L43.331,388.222z"/>
	</g>
</g>
<g>
	<g>
		<path d="M41.692,387.23c0.966,2.517,1.325,5.216,2.285,7.735c0.341,0.895,1.791,0.507,1.446-0.398
			c-0.959-2.52-1.318-5.218-2.285-7.735C42.796,385.938,41.345,386.326,41.692,387.23L41.692,387.23z"/>
	</g>
</g>
<g>
	<g>
		<path d="M36.952,396.432c2.683-0.001,5.399-0.005,7.948-0.942c0.9-0.331,0.511-1.781-0.398-1.446
			c-2.431,0.894-4.993,0.887-7.549,0.889C35.984,394.932,35.984,396.432,36.952,396.432L36.952,396.432z"/>
	</g>
</g>
<g>
	<g>
		<path d="M32.203,388.312c1.06,2.127,2.129,4.25,3.186,6.379c0.43,0.867,1.724,0.106,1.295-0.757
			c-1.057-2.129-2.125-4.252-3.186-6.379C33.066,386.689,31.772,387.449,32.203,388.312L32.203,388.312z"/>
	</g>
</g>
<g>
	<g>
		<path d="M21.454,390.506c3.815-0.509,7.582-1.313,11.396-1.823c0.944-0.126,0.957-1.628,0-1.5
			c-3.814,0.51-7.582,1.314-11.396,1.823C20.51,389.132,20.498,390.634,21.454,390.506L21.454,390.506z"/>
	</g>
</g>
<g>
	<g>
		<path d="M20.277,390.871c1.818,7.748,3.557,15.514,5.471,23.239c0.232,0.939,1.679,0.541,1.446-0.398
			c-1.914-7.725-3.653-15.491-5.471-23.239C21.502,389.531,20.056,389.93,20.277,390.871L20.277,390.871z"/>
	</g>
</g>
<g>
	<g>
		<path d="M25.356,414.634c2.979,0.513,6.032,1.262,8.484,3.111c0.773,0.583,1.519-0.72,0.757-1.295
			c-2.546-1.92-5.75-2.729-8.843-3.262C24.809,413.024,24.404,414.47,25.356,414.634L25.356,414.634z"/>
	</g>
</g>
<g>
	<g>
		<path d="M36.952,418.301c4.752,0.094,9.282-0.865,13.892-1.94c5.824-1.359,11.594-2.101,17.532-2.737
			c11.676-1.25,23.351-2.544,35.106-2.617c0.967-0.006,0.968-1.506,0-1.5c-11.138,0.069-22.208,1.229-33.271,2.42
			c-4.843,0.521-9.7,0.859-14.485,1.789c-6.28,1.22-12.302,3.213-18.775,3.086C35.984,416.782,35.986,418.282,36.952,418.301
			L36.952,418.301z"/>
	</g>
</g>
<g>
	<g>
		<path d="M35.774,419.12c3.167,16.04,3.2,32.408,4.155,48.67c0.815,13.868-1.829,27.998,2.225,41.554
			c0.276,0.925,1.724,0.53,1.446-0.398c-4.134-13.825-1.425-28.473-2.258-42.639c-0.935-15.913-1.022-31.891-4.122-47.585
			C37.033,417.773,35.587,418.176,35.774,419.12L35.774,419.12z"/>
	</g>
</g>
<g>
	<g>
		<path d="M42.216,512.146c9.396,3.149,19.664,2.034,29.338,1.074c12.939-1.283,25.799-1.104,38.754-0.14
			c0.965,0.072,0.958-1.429,0-1.5c-11.815-0.879-23.627-1.208-35.446-0.19c-10.647,0.916-21.866,2.789-32.249-0.691
			C41.695,510.392,41.304,511.84,42.216,512.146L42.216,512.146z"/>
	</g>
</g>
<g>
	<g>
		<path d="M94.984,458.565c0.443,3.629,0.028,7.294,0,10.935c-0.007,0.968,1.493,0.967,1.5,0c0.028-3.641,0.443-7.306,0-10.935
			C96.368,457.618,94.867,457.606,94.984,458.565L94.984,458.565z"/>
	</g>
</g>
<g>
	<g>
		<path d="M96.188,459.77c3.781-0.436,7.588-0.453,11.389-0.454c0.967,0,0.967-1.5,0-1.5c-3.801,0.001-7.608,0.019-11.389,0.454
			C95.239,458.379,95.228,459.88,96.188,459.77L96.188,459.77z"/>
	</g>
</g>
<g>
	<g>
		<path d="M95.535,470.224c3.731,1.061,7.795,0.087,11.595,0.026c0.966-0.016,0.968-1.516,0-1.5
			c-3.646,0.058-7.621,1.043-11.197,0.026C95.001,468.512,94.605,469.959,95.535,470.224L95.535,470.224z"/>
	</g>
</g>
<g>
	<g>
		<path d="M41.053,438.347c3.418-0.056,6.906-0.842,10.282-0.027c0.94,0.227,1.338-1.219,0.398-1.446
			c-3.529-0.852-7.108-0.085-10.68-0.027C40.086,436.863,40.085,438.363,41.053,438.347L41.053,438.347z"/>
	</g>
</g>
<g>
	<g>
		<path d="M50.886,439.345c2.066,2.89,1.719,7.174,1.721,10.556c0,0.967,1.5,0.967,1.5,0c-0.001-3.626,0.297-8.205-1.926-11.313
			C51.624,437.809,50.322,438.557,50.886,439.345L50.886,439.345z"/>
	</g>
</g>
<g>
	<g>
		<path d="M41.968,451.105c3.58-0.465,7.309-1.382,10.928-0.901c0.957,0.127,0.944-1.375,0-1.5
			c-3.61-0.479-7.356,0.437-10.928,0.901C41.023,449.729,41.011,451.23,41.968,451.105L41.968,451.105z"/>
	</g>
</g>
<g>
	<g>
		<path d="M106.868,403.686c4.453-0.848,8.986-0.036,13.468,0.027c0.968,0.014,0.966-1.486,0-1.5
			c-4.631-0.065-9.265-0.849-13.866,0.027C105.52,402.42,105.923,403.866,106.868,403.686L106.868,403.686z"/>
	</g>
</g>
<g>
	<g>
		<path d="M119.138,402.962c0.042,2.743,0.405,5.466,0.447,8.209c0.25-0.25,0.5-0.5,0.75-0.75
			c-3.812,0.479-7.527,1.724-11.382,1.817c-0.966,0.023-0.968,1.523,0,1.5c3.867-0.093,7.563-1.336,11.382-1.817
			c0.4-0.05,0.757-0.303,0.75-0.75c-0.042-2.743-0.406-5.466-0.447-8.209C120.624,401.996,119.124,401.995,119.138,402.962
			L119.138,402.962z"/>
	</g>
</g>
<g>
	<g>
		<path d="M128.8,375.437c-1.502-7.966-1.689-17.167,7.981-19.519c6.194-1.507,9.42,3.794,9.489,9.234
			c0.048,3.857-0.586,7.49,0.565,11.253c0.282,0.922,1.73,0.529,1.446-0.398c-1.674-5.472,1.135-12.028-1.633-17.187
			c-2.048-3.817-6.197-4.977-10.266-4.349c-10.732,1.657-10.559,13.25-9.029,21.364C127.533,376.785,128.979,376.382,128.8,375.437
			L128.8,375.437z"/>
	</g>
</g>
<g>
	<g>
		<path d="M122.937,378.051c1.402-3.271,1.535-6.386,1.362-9.937c-0.13-2.665-0.442-5.276-0.375-7.95
			c0.133-5.3,3.635-6.908,7.968-8.286c5.749-1.828,11.836-1.462,17.22,1.231c6.356,3.179,3.994,17.771,2.403,23.222
			c-0.272,0.931,1.176,1.325,1.446,0.398c1.095-3.75,1.455-7.37,1.502-11.265c0.031-2.525,0.733-6.826-0.449-9.179
			c-2.752-5.473-9.188-6.952-14.874-7.051c-4.652-0.081-13.445,1.325-15.623,5.908c-3.302,6.949,1.168,15.044-1.876,22.151
			C121.266,378.173,122.557,378.938,122.937,378.051L122.937,378.051z"/>
	</g>
</g>
<g>
	<g>
		<path d="M170.468,339.012c3.647-0.487,7.246-1.271,10.941-0.915c0.963,0.093,0.954-1.408,0-1.5
			c-3.703-0.357-7.29,0.428-10.941,0.915C169.523,337.638,169.511,339.14,170.468,339.012L170.468,339.012z"/>
	</g>
</g>
<g>
	<g>
		<path d="M169.291,338.007c0.46,3.223,0.962,6.422,1.823,9.565c0.065,0.24,0.273,0.472,0.524,0.524
			c2.193,0.457,4.59,0.847,6.654,1.748c0.877,0.383,1.642-0.909,0.757-1.295c-1.857-0.811-3.913-1.212-5.882-1.658
			c-1.388-0.314-1.376-2.847-1.612-4.068c-0.333-1.727-0.569-3.474-0.818-5.214C170.601,336.654,169.155,337.062,169.291,338.007
			L169.291,338.007z"/>
	</g>
</g>
<g>
	<g>
		<path d="M182.318,354.055c14.278,0.312,28.526-0.822,42.798-0.984c15.032-0.171,30.112,0.51,45.142,0.81
			c14.178,0.283,28.458,1.149,42.613,0.111c9.212-0.675,18.33-1.317,27.571-1.32c0.967,0,0.967-1.5,0-1.5
			c-8.604,0.003-17.116,0.48-25.691,1.173c-14.789,1.194-29.676,0.332-44.493,0.036c-14.394-0.288-28.799-0.76-43.196-0.818
			c-14.925-0.06-29.813,1.319-44.744,0.992C181.35,352.534,181.352,354.034,182.318,354.055L182.318,354.055z"/>
	</g>
</g>
<g>
	<g>
		<path d="M183.226,358.604c28.144,0.012,56.284,0.532,84.426,0.791c13.028,0.12,26.057,0.025,39.081,0.396
			c12.075,0.345,24.27,0.704,36.179-1.661c0.949-0.188,0.546-1.634-0.398-1.446c-12.348,2.451-25.022,1.915-37.533,1.558
			c-13.089-0.374-26.19-0.245-39.283-0.365c-27.491-0.252-54.979-0.76-82.472-0.772
			C182.259,357.103,182.259,358.603,183.226,358.604L183.226,358.604z"/>
	</g>
</g>
<g>
	<g>
		<path d="M338.088,431.294c1.432,1.805,4.143,2.376,6.261,2.88c2.848,0.678,5.765,0.96,8.652,1.407
			c0.946,0.146,1.352-1.299,0.398-1.446c-2.202-0.341-4.413-0.6-6.607-0.99c-2.404-0.427-6.024-0.872-7.644-2.912
			C338.548,429.476,337.494,430.545,338.088,431.294L338.088,431.294z"/>
	</g>
</g>
<g>
	<g>
		<path d="M352.451,432.587c0.223,1.986,0.179,3.861-0.138,5.841c-0.325,2.027-0.501,3.42-2.763,3.466
			c-3.959,0.081-7.908,0.492-11.846,0.878c-0.954,0.094-0.962,1.594,0,1.5c4.704-0.461,9.398-0.876,14.128-0.909
			c0.362-0.002,0.598-0.233,0.723-0.551c1.311-3.312,1.794-6.684,1.396-10.226C353.844,431.637,352.343,431.627,352.451,432.587
			L352.451,432.587z"/>
	</g>
</g>
<g>
	<g>
		<path d="M343.442,449.833c0.458,0.659,0.274,2.226,0.301,2.998c0.052,1.452,0.05,2.906,0.05,4.359c0,0.967,1.5,0.967,1.5,0
			c0-1.581-0.007-3.162-0.064-4.742c-0.034-0.964,0.096-2.528-0.493-3.372C344.189,448.288,342.888,449.037,343.442,449.833
			L343.442,449.833z"/>
	</g>
</g>
<g>
	<g>
		<path d="M343.834,449.716c3.873-0.938,7.921-0.88,11.869-0.562c1.852,0.149,3.676,0.48,5.467,0.967
			c1.261,0.342,0.457,2.237,0.351,3.376c-0.103,1.103-0.059,2.264-0.583,3.271c-0.825,1.584-4.327,2.047-5.832,2.238
			c-3.831,0.489-7.933-0.178-11.725-0.71c-0.945-0.132-1.353,1.312-0.398,1.447c5.558,0.779,11.277,1.599,16.667-0.368
			c4.038-1.474,3.203-5.75,3.84-9.274c0.079-0.438-0.117-0.76-0.524-0.922c-5.833-2.324-13.489-2.372-19.529-0.908
			C342.496,448.498,342.895,449.944,343.834,449.716L343.834,449.716z"/>
	</g>
</g>
<g>
	<g>
		<path d="M345.253,338.985c3.032,0.504,6.075,0.936,9.118,1.363c-0.175-0.308-0.35-0.615-0.524-0.922
			c-0.46,2.736-0.916,5.473-1.37,8.209c0.241-0.184,0.482-0.367,0.723-0.551c-2.829,0.038-5.633,0.401-8.409,0.935
			c-0.949,0.183-0.546,1.628,0.398,1.446c2.647-0.509,5.313-0.846,8.01-0.881c0.308-0.004,0.669-0.223,0.723-0.551
			c0.455-2.737,0.91-5.474,1.37-8.209c0.061-0.36-0.09-0.862-0.524-0.922c-3.043-0.427-6.086-0.859-9.118-1.363
			C344.706,337.381,344.3,338.827,345.253,338.985L345.253,338.985z"/>
	</g>
</g>
<g>
	<g>
		<path d="M377.686,375.643c-0.101-4.435-0.691-8.805,0.159-13.206c1.06-5.487,7.186-7.665,12.145-6.882
			c8.385,1.324,6.728,14.757,6.662,20.528c-0.011,0.968,1.489,0.967,1.5,0c0.087-7.567,1.426-20.524-8.768-22.133
			c-3.669-0.579-8.605,0.847-10.917,3.897c-3.848,5.077-2.416,11.879-2.281,17.795C376.208,376.608,377.708,376.61,377.686,375.643
			L377.686,375.643z"/>
	</g>
</g>
<g>
	<g>
		<path d="M371.837,377.211c1.299-9.451-0.789-21.607,10.462-25.34c4.752-1.577,13.137-2.29,17.173,1.185
			c4.879,4.199,1.859,17.724,0.791,23.014c-0.191,0.944,1.255,1.346,1.446,0.398c0.826-4.09,1.216-8.2,1.483-12.362
			c0.199-3.096,0.471-7.237-1.201-10.057c-3.025-5.104-8.57-4.918-13.889-4.631c-5.958,0.321-11.578,2.184-14.635,7.578
			c-3.288,5.799-2.205,13.466-3.078,19.816C370.261,377.758,371.706,378.166,371.837,377.211L371.837,377.211z"/>
	</g>
</g>
<g>
	<g>
		<path d="M403.511,401.799c0.427,2.315,0.425,4.746,0.428,7.095c0.001,0.967,1.501,0.967,1.5,0
			c-0.003-2.489-0.029-5.041-0.481-7.494C404.782,400.45,403.337,400.854,403.511,401.799L403.511,401.799z"/>
	</g>
</g>
<g>
	<g>
		<path d="M404.888,402.784c3.675-0.879,9.154-2.106,12.642-0.076c0.837,0.488,1.592-0.809,0.757-1.295
			c-3.907-2.275-9.658-1.065-13.797-0.076C403.549,401.562,403.948,403.009,404.888,402.784L404.888,402.784z"/>
	</g>
</g>
<g>
	<g>
		<path d="M403.402,410.45c3.688,2.802,8.73,1.633,12.766,3.647c0.863,0.431,1.623-0.863,0.757-1.295
			c-4.004-1.999-9.164-0.912-12.766-3.647C403.388,408.57,402.642,409.874,403.402,410.45L403.402,410.45z"/>
	</g>
</g>
<g>
	<g>
		<path d="M416.993,458.4c2.459-0.023,6.991-0.925,9.049,0.695c3.066,2.414,1.211,7.991,1.136,11.307
			c0.184-0.241,0.367-0.482,0.551-0.724c-3.379,0.477-6.878,0.891-10.281,0.44c-0.957-0.127-0.944,1.375,0,1.5
			c3.54,0.469,7.167,0.001,10.68-0.493c0.33-0.047,0.544-0.422,0.551-0.724c0.089-3.936,1.961-9.396-1.575-12.367
			c-2.463-2.069-7.165-1.162-10.109-1.135C416.026,456.909,416.025,458.409,416.993,458.4L416.993,458.4z"/>
	</g>
</g>
<g>
	<g>
		<path d="M471.487,439.806c1.965,3.377,0.848,8.194,0.806,11.912c-0.005,0.409,0.345,0.75,0.75,0.75c3.647,0,7.294,0,10.941,0
			c0.967,0,0.967-1.5,0-1.5c-3.647,0-7.294,0-10.941,0c0.25,0.25,0.5,0.5,0.75,0.75c0.046-4.057,1.144-8.966-1.011-12.669
			C472.296,438.214,471,438.969,471.487,439.806L471.487,439.806z"/>
	</g>
</g>
<g>
	<g>
		<path d="M473.504,439.717c3.344-0.03,6.676-0.417,10.02-0.447c0.967-0.009,0.968-1.509,0-1.5c-3.344,0.03-6.676,0.417-10.02,0.447
			C472.537,438.226,472.536,439.726,473.504,439.717L473.504,439.717z"/>
	</g>
</g>
<g>
	<g>
		<path d="M244.059,296.339c-0.465-10.229-2.152-20.622-0.676-30.835c1.408-9.744,8.668-15.037,18.105-15.588
			c9.276-0.541,16.552,4.207,18.602,13.364c2.252,10.063,1.465,21.519,0.531,31.696c-0.088,0.963,1.412,0.955,1.5,0
			c1.042-11.354,2.149-24.858-1.638-35.833c-2.651-7.682-10.25-10.478-17.756-10.741c-7.696-0.271-15.314,3.262-18.861,10.246
			c-5.533,10.894-1.833,26.136-1.307,37.69C242.603,297.303,244.103,297.307,244.059,296.339L244.059,296.339z"/>
	</g>
</g>
<g>
	<g>
		<path d="M235.134,298.039c0.827-6.017,1.732-11.976,1.591-18.068c-0.183-7.873-2.622-15.739-0.625-23.572
			c2.867-11.24,17.834-14.158,27.649-14.046c9.506,0.109,19.917,3.841,23.269,13.52c2.091,6.04,0.375,13.019-0.105,19.192
			c-0.562,7.208,0.787,14.461,0.651,21.681c-0.018,0.968,1.482,0.966,1.5,0c0.159-8.456-1.176-16.785-0.335-25.24
			c0.593-5.97,1.664-12.599-1.109-18.231c-4.263-8.661-13.678-11.808-22.753-12.38c-9.816-0.62-21.137,2.047-27.559,9.95
			c-4.032,4.962-3.677,11.757-3.207,17.738c0.347,4.416,1.062,8.772,1.166,13.208c0.124,5.301-0.861,10.622-1.579,15.851
			C233.558,298.585,235.003,298.994,235.134,298.039L235.134,298.039z"/>
	</g>
</g>
<g>
	<g>
		<path d="M199.363,265.551c0.523,2.933,1.356,5.833,2.278,8.664c0.298,0.916,1.747,0.524,1.446-0.398
			c-0.921-2.831-1.754-5.732-2.278-8.664C200.639,264.201,199.194,264.605,199.363,265.551L199.363,265.551z"/>
	</g>
</g>
<g>
	<g>
		<path d="M199.632,266.556c7.496-0.64,14.647-3.068,22.076-4.128c-0.316-0.241-0.633-0.482-0.949-0.723
			c-0.034,3.024-0.387,6.245,0.212,9.233c0.245,1.22,1.01,1.922-0.171,2.186c-1.202,0.268-2.392,0.595-3.583,0.907
			c-3.439,0.9-11.713,4.424-14.929,2.063c-0.781-0.574-1.528,0.729-0.757,1.295c2.065,1.517,5.454,0.55,7.738,0.122
			c4.501-0.845,8.851-2.346,13.34-3.239c0.392-0.078,0.639-0.553,0.524-0.922c-1.19-3.836-0.918-7.689-0.875-11.644
			c0.006-0.535-0.48-0.79-0.949-0.723c-7.294,1.042-14.317,3.447-21.677,4.075C198.675,265.137,198.667,266.638,199.632,266.556
			L199.632,266.556z"/>
	</g>
</g>
<g>
	<g>
		<path d="M313.28,296.539c0.604,2.705,0.551,5.396,0.338,8.142c-0.086,1.103-1.048,3.879,0.232,4.625
			c0.505,0.294,1.108-0.085,1.128-0.647c0.001-0.34,0.048-0.675,0.14-1.006c0.439-0.859-0.855-1.619-1.295-0.757
			c-0.298,0.585-0.322,1.114-0.345,1.763c0.376-0.216,0.752-0.432,1.129-0.648c0.009,0.006,0.644-5.384,0.665-5.92
			c0.08-2.006-0.108-3.994-0.545-5.95C314.516,295.196,313.07,295.596,313.28,296.539L313.28,296.539z"/>
	</g>
</g>
<g>
	<g>
		<path d="M315.118,297.062c3.153-1.096,7.426-0.505,10.543,0.461c0.926,0.287,1.319-1.161,0.398-1.446
			c-3.369-1.045-7.941-1.643-11.34-0.461C313.812,295.932,314.202,297.381,315.118,297.062L315.118,297.062z"/>
	</g>
</g>
<g>
	<g>
		<path d="M314.272,308.458c3.842,0.522,7.559,1.676,11.389,2.264c0.946,0.145,1.353-1.3,0.398-1.446
			c-3.83-0.587-7.546-1.741-11.389-2.264C313.725,306.884,313.317,308.329,314.272,308.458L314.272,308.458z"/>
	</g>
</g>
<g>
	<g>
		<path d="M124.368,379.923c4.046-2.739,10.858-1.689,15.456-1.419c4.897,0.288,9.785,0.987,14.692,1.061
			c0.968,0.015,0.966-1.485,0-1.5c-5.739-0.086-11.463-0.914-17.196-1.196c-4.211-0.208-9.999-0.752-13.708,1.76
			C122.815,379.167,123.565,380.467,124.368,379.923L124.368,379.923z"/>
	</g>
</g>
<g>
	<g>
		<path d="M123.528,388.683c10.058-1.285,21.139,1.715,30.74-2.298c0.879-0.367,0.494-1.819-0.398-1.446
			c-9.449,3.95-20.427,0.978-30.341,2.244C122.583,387.304,122.571,388.806,123.528,388.683L123.528,388.683z"/>
	</g>
</g>
<g>
	<g>
		<path d="M153.154,380.026c2.462,0.107,3.557,3.505,1.748,5.106c-0.726,0.642,0.339,1.699,1.061,1.061
			c2.841-2.513,0.878-7.507-2.808-7.667C152.187,378.484,152.19,379.984,153.154,380.026L153.154,380.026z"/>
	</g>
</g>
<g>
	<g>
		<path d="M123.791,379.077c-0.06-0.023,0.831,0.38,0.812,0.199c0.25-0.25,0.5-0.5,0.75-0.75c-2.904,0.097-5.007,2.067-5.018,5.021
			c-0.011,2.811,2.295,4.806,5.018,4.675c0.963-0.046,0.967-1.546,0-1.5c-4.617,0.222-4.556-6.543,0-6.696
			c0.375-0.013,0.794-0.333,0.75-0.75c-0.138-1.302-0.851-1.226-1.913-1.645C123.289,377.275,122.901,378.727,123.791,379.077
			L123.791,379.077z"/>
	</g>
</g>
<g>
	<g>
		<path d="M233.558,300.703c18.504-2.681,37.241-0.941,55.844-0.881c0.967,0.003,0.967-1.497,0-1.5
			c-18.749-0.06-37.594-1.767-56.243,0.935C232.205,299.395,232.612,300.84,233.558,300.703L233.558,300.703z"/>
	</g>
</g>
<g>
	<g>
		<path d="M234.061,311.19c9.255,1.899,18.861,0.605,28.238,1.003c9.681,0.41,19.534,0.468,29.133-1.003
			c0.954-0.146,0.547-1.591-0.398-1.446c-8.942,1.371-18.083,1.282-27.102,1.009c-9.704-0.294-19.922,0.951-29.472-1.009
			C233.515,309.55,233.113,310.996,234.061,311.19L234.061,311.19z"/>
	</g>
</g>
<g>
	<g>
		<path d="M289.215,299.45c1.914,2.729,5.252,8.04,1.178,10.37c-0.839,0.48-0.084,1.776,0.757,1.295
			c4.975-2.845,1.82-8.915-0.64-12.422C289.959,297.907,288.658,298.656,289.215,299.45L289.215,299.45z"/>
	</g>
</g>
<g>
	<g>
		<path d="M236.999,298.782c-6.632-0.737-6.13,9.683-2.354,12.663c0.75,0.592,1.82-0.461,1.061-1.061
			c-2.76-2.178-3.914-10.681,1.293-10.102C237.959,300.389,237.949,298.888,236.999,298.782L236.999,298.782z"/>
	</g>
</g>
<g>
	<g>
		<path d="M369.6,380.026c10.632,0,21.264,0,31.896,0c0.967,0,0.967-1.5,0-1.5c-10.632,0-21.264,0-31.896,0
			C368.632,378.526,368.632,380.026,369.6,380.026L369.6,380.026z"/>
	</g>
</g>
<g>
	<g>
		<path d="M370.522,386.853c9.772-0.022,19.775-0.594,29.412,1.342c0.944,0.19,1.347-1.256,0.398-1.446
			c-9.78-1.965-19.894-1.418-29.811-1.396C369.555,385.354,369.555,386.854,370.522,386.853L370.522,386.853z"/>
	</g>
</g>
<g>
	<g>
		<path d="M401.117,379.923c2.99,2.301,1.621,5.911-1.362,7.362c-0.87,0.423-0.109,1.716,0.757,1.295
			c4.144-2.016,5.17-7.022,1.362-9.952C401.107,378.038,400.362,379.342,401.117,379.923L401.117,379.923z"/>
	</g>
</g>
<g>
	<g>
		<path d="M371.423,378.065c-6.334,0.745-3.998,8.97,1.17,9.689c0.945,0.132,1.353-1.313,0.398-1.446
			c-1.754-0.244-3.117-1.388-3.757-3.035c-0.731-1.881,0.177-3.472,2.188-3.708C372.372,379.453,372.383,377.952,371.423,378.065
			L371.423,378.065z"/>
	</g>
</g>
<g>
	<g>
		<path d="M218.763,457.939c16.239-0.044,32.649-0.253,48.867-1.062c11.965-0.597,25.314-3.71,37.07-0.327
			c0.932,0.268,1.327-1.18,0.398-1.447c-11.444-3.292-24.458-0.581-36.096,0.193c-16.619,1.106-33.582,1.099-50.239,1.144
			C217.795,456.442,217.795,457.942,218.763,457.939L218.763,457.939z"/>
	</g>
</g>
<g>
	<g>
		<path d="M304.521,456.935c2.092,1.491,0.589,6.333,0.537,8.464c-0.024,0.968,1.476,0.966,1.5,0
			c0.072-2.943,1.635-7.683-1.28-9.759C304.488,455.077,303.74,456.379,304.521,456.935L304.521,456.935z"/>
	</g>
</g>
<g>
	<g>
		<path d="M304.251,466.383c-0.413,0.657-4.252,0.393-4.979,0.408c-3.251,0.073-6.509-0.04-9.757-0.152
			c-5.824-0.202-11.647-0.531-17.458-0.972c-17.423-1.321-37.157,6.305-53.825-0.916c-0.878-0.381-1.643,0.911-0.757,1.295
			c17.158,7.433,37.221-0.195,55.158,1.165c7.011,0.531,14.044,0.885,21.074,1.051c2.22,0.053,10.319,1.299,11.839-1.121
			C306.062,466.318,304.765,465.566,304.251,466.383L304.251,466.383z"/>
	</g>
</g>
<g>
	<g>
		<path d="M217.131,456.99c-0.47,2.938-1.01,6.174,0,9.055c0.318,0.906,1.767,0.517,1.446-0.398c-0.917-2.615-0.427-5.59,0-8.258
			C218.729,456.443,217.283,456.037,217.131,456.99L217.131,456.99z"/>
	</g>
</g>
<g>
	<g>
		<path d="M260.699,399.48c-15.732-1.615-28.316,10.807-34.713,23.786c-2.939,5.963-3.992,11.807-4.538,18.323
			c-0.238,2.844-2.039,10.287-0.133,12.799c0.577,0.76,1.88,0.014,1.295-0.757c-0.641-0.845-0.191-3.334-0.159-4.317
			c0.083-2.578,0.292-5.154,0.498-7.725c0.504-6.302,1.655-11.732,4.333-17.566c5.808-12.651,18.469-24.577,33.418-23.043
			C261.661,401.079,261.651,399.578,260.699,399.48L260.699,399.48z"/>
	</g>
</g>
<g>
	<g>
		<path d="M260.039,400.5c13.083,2.627,28.304,5.764,33.196,19.983c0.312,0.909,1.762,0.519,1.446-0.398
			c-5.088-14.789-20.526-18.276-34.244-21.031C259.493,398.863,259.09,400.309,260.039,400.5L260.039,400.5z"/>
	</g>
</g>
<g>
	<g>
		<path d="M292.512,417.173c6.072,6.37,8.637,14.758,9.266,23.394c0.252,3.469,0.941,9.728-0.334,13.019
			c0.491,0.066,0.982,0.133,1.473,0.199c-0.002-0.079-0.004-0.158-0.007-0.236c-0.027-0.965-1.527-0.968-1.5,0
			c0.002,0.079,0.004,0.158,0.007,0.236c0.025,0.888,1.175,0.968,1.473,0.2c0.596-1.537,0.273-3.935,0.347-5.552
			c0.171-3.784,0.137-7.515-0.267-11.288c-0.833-7.766-3.999-15.368-9.397-21.032C292.904,415.411,291.845,416.474,292.512,417.173
			L292.512,417.173z"/>
	</g>
</g>
<g>
	<g>
		<path d="M221.762,468.056c3.435,5.177,2.519,14.026,2.521,19.933c0.001,7.059-0.398,14.111-0.792,21.156
			c-0.054,0.967,1.446,0.962,1.5,0c0.417-7.451,0.793-14.899,0.792-22.364c-0.001-5.796,0.67-14.365-2.725-19.482
			C222.525,466.496,221.226,467.247,221.762,468.056L221.762,468.056z"/>
	</g>
</g>
<g>
	<g>
		<path d="M300.068,468.784c1.321,6.691,1.37,13.711,1.355,20.506c-0.013,6.144,0.619,14.891-2.642,20.384
			c-0.495,0.834,0.802,1.588,1.295,0.758c3.058-5.151,2.67-12.949,2.814-18.685c0.194-7.713,0.124-15.764-1.376-23.361
			C301.327,467.438,299.881,467.84,300.068,468.784L300.068,468.784z"/>
	</g>
</g>
<g>
	<g>
		<path d="M292.292,467.215c-0.305,14.625,2.771,29.498,0.027,44.009c-0.179,0.945,1.267,1.349,1.446,0.398
			c2.773-14.662-0.281-29.632,0.027-44.407C293.812,466.247,292.312,466.249,292.292,467.215L292.292,467.215z"/>
	</g>
</g>
<g>
	<g>
		<path d="M279.541,467.677c0.392,13.826-0.415,27.643-0.454,41.468c-0.003,0.968,1.497,0.967,1.5,0
			c0.04-13.825,0.846-27.642,0.454-41.468C281.013,466.712,279.513,466.709,279.541,467.677L279.541,467.677z"/>
	</g>
</g>
<g>
	<g>
		<path d="M267.236,467.677c0.048,9.935,0.213,19.941,0.729,29.862c0.167,3.222,0.154,6.41,0.081,9.63
			c-0.029,1.266-0.322,3.098,0.33,4.268c0.185,0.331,0.699,0.506,1.026,0.269c0.399-0.289,0.481-0.534,0.677-0.998
			c0.375-0.891-1.077-1.275-1.446-0.398c0.52-1.234,0.902-0.438,0.901-2.19c-0.001-1.222,0.049-2.445,0.085-3.667
			c0.104-3.546-0.17-7.095-0.339-10.635c-0.413-8.679-0.501-17.45-0.544-26.14C268.731,466.71,267.231,466.709,267.236,467.677
			L267.236,467.677z"/>
	</g>
</g>
<g>
	<g>
		<path d="M255.386,466.762c-0.553,15.105-3.411,30.83,0.027,45.769c0.217,0.942,1.663,0.543,1.446-0.398
			c-3.401-14.782-0.521-30.42,0.027-45.37C256.922,465.794,255.421,465.798,255.386,466.762L255.386,466.762z"/>
	</g>
</g>
<g>
	<g>
		<path d="M242.174,467.215c1.307,14.401,1.802,28.836,1.823,43.293c0.491-0.066,0.982-0.133,1.473-0.199
			c-0.21-0.591-0.364-1.196-0.461-1.816c-0.202-0.946-1.647-0.545-1.446,0.398c0.097,0.62,0.251,1.226,0.461,1.816
			c0.25,0.8,1.475,0.665,1.473-0.199c-0.021-14.457-0.517-28.892-1.823-43.293C243.587,466.26,242.086,466.251,242.174,467.215
			L242.174,467.215z"/>
	</g>
</g>
<g>
	<g>
		<path d="M231.273,469.309c-0.891,0.229-0.046,13.083-0.028,15.423c0.059,7.837,0.416,15.669,0.448,23.505
			c0.004,0.967,1.504,0.968,1.5,0c-0.034-8.26-0.396-16.517-0.458-24.777c-0.023-3.135-0.019-6.268-0.117-9.402
			c-0.05-1.604,0.263-4.475-0.754-5.887c-0.201-0.28-0.497-0.436-0.847-0.345c-0.048,0.012-0.096,0.024-0.143,0.036
			C229.938,468.104,230.336,469.551,231.273,469.309L231.273,469.309z"/>
	</g>
</g>
<g>
	<g>
		<path d="M213.938,458.765c2.626,9.839,1.694,20.925,1.178,31.021c-0.226,4.412-0.524,8.818-0.517,13.239
			c0.004,2.33-0.087,5.362,1.245,7.406c0.526,0.807,1.825,0.056,1.295-0.758c-1.713-2.628-1.069-7.187-0.998-10.173
			c0.094-3.949,0.397-7.892,0.578-11.837c0.439-9.589,1.162-19.942-1.335-29.298C215.135,457.433,213.688,457.829,213.938,458.765
			L213.938,458.765z"/>
	</g>
</g>
<g>
	<g>
		<path d="M215.872,460.836c-0.415-12.276-2.37-24.637,0.031-36.829c2.925-14.852,16.396-24.384,29.975-29.047
			c28.391-9.751,62.216,8.857,62.82,40.373c0.019,0.966,1.519,0.968,1.5,0c-0.598-31.208-31.866-49.484-60.519-43.012
			c-12.929,2.92-28.31,11.961-33.28,24.869c-5.366,13.935-2.516,29.163-2.027,43.646
			C214.405,461.801,215.905,461.804,215.872,460.836L215.872,460.836z"/>
	</g>
</g>
<g>
	<g>
		<path d="M309.647,431.48c-4.075,10.902-1.733,22.956-1.821,34.29c-0.12,15.278-2.67,30.367-0.945,45.653
			c0.107,0.95,1.608,0.96,1.5,0c-1.593-14.108,0.204-28.194,0.834-42.303c0.548-12.252-2.525-25.462,1.878-37.242
			C311.433,430.971,309.982,430.583,309.647,431.48L309.647,431.48z"/>
	</g>
</g>
<g>
	<g>
		<path d="M292.292,416.643c0.403,12.155-0.395,24.298-0.44,36.452c-0.004,0.968,1.496,0.967,1.5,0
			c0.046-12.154,0.844-24.297,0.44-36.452C293.76,415.678,292.26,415.675,292.292,416.643L292.292,416.643z"/>
	</g>
</g>
<g>
	<g>
		<path d="M280.442,405.247c-0.03,9.902-0.541,19.804-0.444,29.706c0.061,6.215,2.304,15.123-0.354,20.955
			c-0.398,0.874,0.894,1.637,1.295,0.758c2.4-5.264,0.933-12.69,0.678-18.25c-0.505-11.037,0.292-22.126,0.326-33.169
			C281.945,404.28,280.445,404.28,280.442,405.247L280.442,405.247z"/>
	</g>
</g>
<g>
	<g>
		<path d="M267.717,402.26c3.136,18,1.396,36.329,1.336,54.482c0.491-0.066,0.982-0.133,1.473-0.199
			c-0.148-0.911-0.297-1.822-0.447-2.732c-0.156-0.953-1.602-0.547-1.446,0.398c0.149,0.911,0.299,1.821,0.447,2.732
			c0.14,0.854,1.471,0.623,1.473-0.199c0.06-18.297,1.771-36.738-1.39-54.88C268.998,400.91,267.552,401.314,267.717,402.26
			L267.717,402.26z"/>
	</g>
</g>
<g>
	<g>
		<path d="M255.386,401.152c-0.318,10.929,1.942,21.707,1.809,32.626c-0.091,7.474-1.917,15.041-1.348,22.508
			c0.073,0.958,1.574,0.965,1.5,0c-0.566-7.436,1.105-15.068,1.348-22.508c0.356-10.908-2.127-21.701-1.809-32.626
			C256.915,400.185,255.415,400.188,255.386,401.152L255.386,401.152z"/>
	</g>
</g>
<g>
	<g>
		<path d="M242.545,405.44c2.206,1.309,1.979,6.743,2.112,8.862c0.305,4.848,0.165,9.73,0.008,14.581
			c-0.255,7.915-1.071,15.832-1.13,23.75c-0.007,0.906,1.173,0.942,1.473,0.199c0.308-0.758,0.613-1.517,0.916-2.278
			c0.359-0.899-1.092-1.285-1.446-0.398c-0.302,0.76-0.607,1.52-0.916,2.278c0.491,0.066,0.982,0.133,1.473,0.199
			c0.07-9.393,1.056-18.778,1.247-28.174c0.097-4.752,0.098-9.548-0.502-14.27c-0.25-1.965-0.568-4.911-2.479-6.044
			C242.468,403.65,241.714,404.948,242.545,405.44L242.545,405.44z"/>
	</g>
</g>
<g>
	<g>
		<path d="M231.797,416.381c0.208-0.591,0.359-1.196,0.454-1.816c-0.482,0-0.964,0-1.446,0c3.083,13.671-1.588,27.874,1.831,41.461
			c0.236,0.938,1.683,0.54,1.446-0.398c-3.413-13.564,1.253-27.787-1.831-41.461c-0.161-0.712-1.294-0.725-1.446,0
			c-0.096,0.62-0.247,1.225-0.454,1.816C230.064,416.909,231.513,417.302,231.797,416.381L231.797,416.381z"/>
	</g>
</g>
<g>
	<g>
		<path d="M244.665,449.193c-0.379-0.309-0.516-0.326-0.41-0.052c0.043,0.18,0.03,0.385,0.035,0.567
			c0.012,0.512-0.033,1.026-0.071,1.535c-0.08,1.073-0.209,2.143-0.222,3.22c-0.012,0.968,1.488,0.967,1.5,0
			c0.012-0.995,1.253-8.199-1.589-6.565C243.069,448.38,243.825,449.676,244.665,449.193L244.665,449.193z"/>
	</g>
</g>
<g>
	<g>
		<path d="M135.303,159.369c3.361-1.854,3.493,12.881,3.482,14.961c-0.024,5.051-0.13,10.078-0.003,15.129
			c0.218,8.701-0.059,17.297-0.059,25.989c0,0.967,1.5,0.967,1.5,0c0-0.23,0-0.46,0-0.691c0-0.967-1.5-0.967-1.5,0
			c0,0.23,0,0.46,0,0.691c0,0.967,1.5,0.967,1.5,0c0-8.696,0.372-17.282,0.059-25.989c-0.379-10.545,1.481-21.763-2.357-31.846
			c-0.148-0.39-0.497-0.629-0.922-0.524c-1.405,0.346-1.145,0.26-2.457,0.984C133.699,158.542,134.456,159.837,135.303,159.369
			L135.303,159.369z"/>
	</g>
</g>
<g>
	<g>
		<path d="M134.766,163.731c0-0.303,0-0.605,0-0.908c0-0.967-1.5-0.967-1.5,0c0,0.303,0,0.605,0,0.908
			C133.266,164.699,134.766,164.699,134.766,163.731L134.766,163.731z"/>
	</g>
</g>
<g>
	<g>
		<path d="M133.266,158.261c0.185,10.39,2.686,20.699,2.232,31.106c-0.249,5.716-0.792,11.412-0.923,17.134
			c-0.073,3.188-0.517,7.937,1.643,10.625c0.605,0.754,1.66-0.314,1.061-1.061c-2.345-2.921-1.231-9.602-1.091-13.035
			c0.21-5.165,0.709-10.314,0.882-15.481c0.328-9.773-2.129-19.521-2.303-29.289C134.749,157.294,133.249,157.293,133.266,158.261
			L133.266,158.261z"/>
	</g>
</g>
<g>
	<g>
		<path d="M138.75,160.745c1.588,9.16,8.03,23.42,0.193,31.16c-0.689,0.68,0.372,1.741,1.061,1.061
			c8.39-8.285,1.878-22.904,0.193-32.619C140.031,159.394,138.586,159.799,138.75,160.745L138.75,160.745z"/>
	</g>
</g>
<g>
	<g>
		<path d="M140.395,197.74c11.733-0.126,21.581,8.638,33.406,4.527c8.301-2.886,18.024-9.964,20.629-18.738
			c0.276-0.93-1.172-1.324-1.446-0.398c-2.693,9.071-13.196,15.826-21.785,18.404c-10.263,3.081-20.434-5.407-30.803-5.295
			C139.428,196.25,139.427,197.75,140.395,197.74L140.395,197.74z"/>
	</g>
</g>
<g>
	<g>
		<path d="M191.814,182.8c-10.355,11.897-20.121-10.266-25.552-16.648c-7.001-8.226-18.975-6.862-28.599-6.818
			c-0.967,0.004-0.967,1.504,0,1.5c6.622-0.03,13.394-0.611,19.819,1.333c7.297,2.208,10.272,9.015,14.264,14.782
			c4.9,7.079,13.555,15.613,21.129,6.912C193.506,183.134,192.45,182.069,191.814,182.8L191.814,182.8z"/>
	</g>
</g>
<g>
	<g>
		<path d="M390.637,158.646c-5.824-7.414-4.951,9.228-4.802,11.514c0.294,4.538,0.843,9.041,0.943,13.59
			c0.23,10.499-2.397,20.715-0.581,31.208c0.165,0.952,1.61,0.547,1.446-0.398c-2.168-12.521,1.367-25.182,0.237-37.799
			c-0.305-3.405-0.599-6.81-0.741-10.227c-0.066-1.588-0.491-10.556,2.437-6.828C390.174,160.466,391.228,159.397,390.637,158.646
			L390.637,158.646z"/>
	</g>
</g>
<g>
	<g>
		<path d="M391.318,216.596c-0.046-18.696-1.339-37.365-1.824-56.05c-0.025-0.965-1.525-0.968-1.5,0
			c0.484,18.686,1.777,37.354,1.824,56.05C389.82,217.563,391.32,217.563,391.318,216.596L391.318,216.596z"/>
	</g>
</g>
<g>
	<g>
		<path d="M389.459,163.656c3.869,5.224,5.466,11.589,3.991,18.001c-0.968,4.208-3.759,8.196-3.632,12.608
			c0.028,0.965,1.528,0.968,1.5,0c-0.15-5.242,3.851-9.805,4.102-15.043c0.289-6.046-1.035-11.422-4.665-16.323
			C390.186,162.131,388.883,162.877,389.459,163.656L389.459,163.656z"/>
	</g>
</g>
<g>
	<g>
		<path d="M390.946,197.521c1.383,1.136,3.541,1.111,5.242,1.4c3.314,0.564,6.532,1.775,9.705,2.846
			c5.841,1.971,11.273,2.848,17.406,1.711c4.902-0.909,8.861-4.472,12.506-7.638c3.615-3.142,7.585-6.8,9.63-11.223
			c0.403-0.872-0.89-1.634-1.295-0.757c-3.27,7.069-12.469,15.264-19.786,17.793c-5.334,1.844-11.285,0.824-16.487-0.812
			c-2.66-0.836-5.279-1.78-7.955-2.569c-2.072-0.611-6.244-0.449-7.905-1.813C391.265,195.852,390.198,196.906,390.946,197.521
			L390.946,197.521z"/>
	</g>
</g>
<g>
	<g>
		<path d="M442.896,183.254c-10.542,11.008-18.306-5.145-23.142-13.25c-7.02-11.764-19.066-7.854-30.363-10.182
			c-0.944-0.194-1.346,1.251-0.398,1.446c6.989,1.44,14.256-0.072,21.102,2.185c6.753,2.226,9.466,9.458,12.937,14.969
			c5.194,8.25,12.749,14.43,20.926,5.892C444.625,183.616,443.565,182.554,442.896,183.254L442.896,183.254z"/>
	</g>
</g>
<g>
	<g>
		<path d="M258.146,31.206c-1.358-1.829-5.095-3.443-6.06-0.303c-1.514,4.928,0.45,11.144,1.457,16.006
			c1.417,6.843,0.201,14.113-0.278,21.012c-0.405,5.831-1.26,12.782,1.308,18.261c0.41,0.875,1.703,0.113,1.295-0.757
			c-2.076-4.431-1.503-10.036-1.27-14.781c0.261-5.319,0.825-10.618,1.024-15.94c0.132-3.518-0.314-6.633-1.017-10.052
			c-0.505-2.459-0.951-4.926-1.258-7.418c-0.163-1.319-0.077-10.092,3.503-5.271C257.421,32.73,258.724,31.983,258.146,31.206
			L258.146,31.206z"/>
	</g>
</g>
<g>
	<g>
		<path d="M259.591,88.743c1.433-8.455-0.177-16.846-0.767-25.303c-0.689-9.879-1.398-20.14-1.03-30.038
			c0.036-0.968-1.464-0.964-1.5,0c-0.329,8.831,0.822,17.608,0.916,26.432c0.101,9.533,2.548,18.995,0.935,28.511
			C257.985,89.29,259.43,89.695,259.591,88.743L259.591,88.743z"/>
	</g>
</g>
<g>
	<g>
		<path d="M258.145,34.97c1.69,10.545,4.965,19.371-0.378,29.501c-0.451,0.854,0.844,1.613,1.295,0.757
			c5.566-10.551,2.307-19.572,0.53-30.657C259.438,33.619,257.993,34.024,258.145,34.97L258.145,34.97z"/>
	</g>
</g>
<g>
	<g>
		<path d="M261.531,69.219c-0.658,0.81-0.567,1.08,0.272,0.811c0.695-0.044,1.403,0.003,2.097,0.027
			c1.832,0.063,3.661,0.24,5.484,0.416c4.855,0.468,9.483,1.765,14.167,3.094c9.141,2.593,17.415,3.448,26.737,1.898
			c8.604-1.431,17.139-3.84,25.131-7.339c5.411-2.369,12.277-6.016,13.948-12.195c0.253-0.935-1.194-1.332-1.446-0.398
			c-1.993,7.37-12.005,10.996-18.351,13.343c-7.985,2.953-16.506,4.942-24.965,5.89c-10.984,1.229-20.693-3.566-31.277-5.316
			c-1.968-0.326-12.294-2.509-13.288-0.271c-0.142,0.319-0.136,0.644,0.117,0.909c0.198,0.207,0.352,0.291,0.616,0.427
			C261.632,70.958,262.391,69.663,261.531,69.219L261.531,69.219z"/>
	</g>
</g>
<g>
	<g>
		<path d="M347.2,55.202c-7.16,6.001-17.913,3.059-25.744,0.097c-7.758-2.936-13.478-7.734-19.949-12.642
			c-6.582-4.992-14.837-8.088-22.741-10.217c-7.138-1.923-15.207-2.993-22.368-0.669c-0.916,0.297-0.524,1.746,0.398,1.446
			c9.146-2.968,19.468-0.329,28.247,2.731c8.577,2.99,14.766,7.743,21.838,13.115c9.999,7.594,30.012,16.727,41.378,7.2
			C349.002,55.64,347.936,54.585,347.2,55.202L347.2,55.202z"/>
	</g>
</g>
<g>
	<g>
		<path d="M257.044,35.521c4.6-0.521,9.076-1.757,13.674-2.278c0.95-0.107,0.96-1.609,0-1.5c-4.599,0.521-9.076,1.757-13.674,2.278
			C256.095,34.128,256.084,35.63,257.044,35.521L257.044,35.521z"/>
	</g>
</g>
</svg>
